<svg xmlns="http://www.w3.org/2000/svg" viewBox="0 0 119.357 47.743">
  <defs>
    <style>
      .cls-1 {
        fill: #fff;
      }
    </style>
  </defs>
  <path id="Path_9" data-name="Path 9" class="cls-1" d="M0,0V3.27H23.227V0ZM26.521,0V3.27h33.11A12.589,12.589,0,0,0,51.765,0Zm39.6,0V3.27H86.152L84.97,0Zm34.387,0L99.317,3.27h19.849V0ZM0,6.35V9.62H23.227V6.35Zm26.521.012V9.62H63.474s-.43-2.518-1.182-3.258Zm39.6,0V9.62H88.348l-1.1-3.258Zm32.012,0-1.1,3.258h22.141V6.362ZM6.672,12.7v3.27H16.734V12.7Zm26.533,0v3.27H43.267V12.7Zm19.849,0v3.27H63.116a11.073,11.073,0,0,0,.645-3.27Zm19.754,0v3.27H90.652L89.458,12.7Zm23.143,0-1.194,3.27h17.927V12.7ZM6.672,19.061v3.27H16.734v-3.27Zm26.533,0v3.27H58.9a11.02,11.02,0,0,0,2.841-3.27Zm39.6,0v3.27H82.87V20.517l.645,1.814h18.417l.68-1.814v1.814h10.062v-3.27H93.791l-1,2.769-1-2.769ZM6.672,25.411v3.27H16.734v-3.27Zm26.533,0v3.27H61.743a11.015,11.015,0,0,0-2.841-3.27Zm39.6,0v3.27H82.87v-3.27Zm11.888,0,1.217,3.27H99.735l1.158-3.27Zm17.927,0v3.27h10.062v-3.27ZM6.672,31.761v3.27H16.734v-3.27Zm26.533,0v3.27H43.267v-3.27Zm19.849,0v3.27H63.749a11.073,11.073,0,0,0-.645-3.27Zm19.754,0v3.27H82.87v-3.27Zm14.168,0,1.182,3.27h9.262l1.194-3.27Zm15.648,0v3.27h10.062v-3.27ZM.179,38.123v3.27H23.406v-3.27Zm26.342,0v3.27H62.281c.752-.752,1.182-3.27,1.182-3.27Zm39.782,0v3.27H82.858v-3.27Zm22.964,0,1.217,3.27H95.2l1.134-3.27Zm13.356,0v3.27h16.734v-3.27ZM.179,44.472v3.27H23.406v-3.27Zm26.342,0v3.27H51.765a12.65,12.65,0,0,0,7.866-3.258H26.521Zm39.782,0v3.27H82.858v-3.27Zm25.256,0,1.17,3.258h.2l1.182-3.258Zm11.064,0v3.27h16.734v-3.27Z"/>
</svg>
