<svg xmlns="http://www.w3.org/2000/svg" viewBox="0 0 100 22.18"><defs><style>.c82d20ee-1edb-4855-9542-fe09f08b7787{fill:#df121d;}.\31 8ccd774-5544-47b1-bdbc-b69a6a516250{fill:#99999a;}</style></defs><title>TM Forum Logo</title><g id="2e570efd-9f54-42dc-8cf6-94d256ca9f79" data-name="Layer 2"><g id="a27c364d-6be4-4dcf-95d0-9921edb21a89" data-name="Layer 1"><path class="c82d20ee-1edb-4855-9542-fe09f08b7787" d="M48.4,6.42c5.39,0,7.72,3.65,7.72,7.81s-2.42,8-7.81,8c-4.24,0-7.6-2.62-7.6-7.84C40.71,10.75,42.53,6.42,48.4,6.42Zm.06,12.73c1.91,0,3.21-1.15,3.21-5.1,0-2-.38-4.71-3.27-4.71-3.18,0-3.21,3.68-3.21,5C45.18,17.71,46.3,19.15,48.45,19.15Z"/><path class="c82d20ee-1edb-4855-9542-fe09f08b7787" d="M56.85,6.72h4V9.57c.56-1.27,1.53-3.06,5.07-2.89v3.92c-4.42-.41-4.68,1.86-4.68,3.71v7.34H56.84Z"/><path class="c82d20ee-1edb-4855-9542-fe09f08b7787" d="M99.21,8.87a5.54,5.54,0,0,0-9.35.38c-.29-.71-1.26-2.8-4.68-2.8a5.08,5.08,0,0,0-4.57,2.2v-2H76.17v7.59c0,2.53,0,4.63-2.81,4.63-2.33,0-2.33-2-2.33-3.27V6.7H66.59V16c0,.74,0,2.8,1,4A5.71,5.71,0,0,0,72,22a4.88,4.88,0,0,0,4.35-2.28v1.9h4.44V12.9c0-1,0-3.36,2.72-3.36C86,9.55,86,11.67,86,12.82v8.84h4.44V14.2c0-2.21,0-4.65,2.66-4.65,2.27,0,2.48,1.77,2.48,3.36v8.75H100v-8.4A8.61,8.61,0,0,0,99.21,8.87Z"/><path class="c82d20ee-1edb-4855-9542-fe09f08b7787" d="M43.83,6.7H39V5c0-.77.06-1.94,2.3-1.94a6.53,6.53,0,0,1,1,.09v-3A18.5,18.5,0,0,0,39.94,0c-4.24,0-5.12,2.12-5.12,4.74v2H30.64A6.13,6.13,0,0,1,33.14,10h1.67V21.65H39V10h2a8.86,8.86,0,0,1,.82-1.41A7.47,7.47,0,0,1,43.83,6.7Z"/><path class="18ccd774-5544-47b1-bdbc-b69a6a516250" d="M5.14,2.5H2.8V6.7H0V9H2.8v8.6c0,2.75,1.9,4.15,4.65,4.15a10.51,10.51,0,0,0,1.66-.08v-2.2a8.31,8.31,0,0,1-1.61,0c-1.49-.06-2.36-.68-2.36-2.15V9H8.41V6.7H5.14Z"/><path class="18ccd774-5544-47b1-bdbc-b69a6a516250" d="M27.18,6.59a5.81,5.81,0,0,0-5,2.64,5.13,5.13,0,0,0-4.66-2.64,5.42,5.42,0,0,0-4.43,2.23V6.7H10.51v15h2.57V13.27c0-2.48,1.48-4.28,3.66-4.28s3.35,1.51,3.35,4v8.63h3V13.19c0-2.51,1.4-4.2,3.62-4.2s3.39,1.49,3.39,4.09v8.58h2.57V12.58C32.71,8.88,30.6,6.59,27.18,6.59Z"/></g></g></svg>