<svg xmlns="http://www.w3.org/2000/svg" viewBox="0 0 216.574 29.562">
  <defs>
    <style>
      .cls-1 {
        fill: #fff;
      }
    </style>
  </defs>
  <path id="Watson_IoT_1_" class="cls-1" d="M6.574,29.038,0,0H6.251L8.994,13.954l1.533,8.066h.121l1.815-8.066L15.688,0h6.9l3.226,13.954,1.775,8.066h.121l1.533-8.066L32.063,0h6.009L31.337,29.038H24.118l-3.67-15.729L19.036,6.937h-.121l-1.452,6.372-3.67,15.729Zm50.453,0a4.131,4.131,0,0,1-4.154-3.831h-.242c-.686,2.823-3.065,4.315-6.413,4.315-4.356,0-6.775-2.581-6.775-6.372,0-4.6,3.589-6.816,9.357-6.816h3.468V14.963c0-2.138-1.049-3.468-3.63-3.468a5.433,5.433,0,0,0-4.719,2.581l-3.67-3.226c1.734-2.581,4.235-4.154,8.832-4.154,6.171,0,9.316,2.823,9.316,7.985v9.558h2.057v4.8Zm-4.759-6.614V19.843H49.284c-2.379,0-3.63.887-3.63,2.46v.6c0,1.573,1.049,2.339,2.863,2.339C50.534,25.247,52.268,24.4,52.268,22.424Zm19.681,6.614c-4.235,0-6.493-2.218-6.493-6.372V11.978H62.391v-4.8h1.533c1.654,0,2.178-.847,2.178-2.339V1.291h5.525V7.179h4.315v4.8H71.627v12.26h3.993v4.8Zm6.493-3.428,3.63-3.67a7.637,7.637,0,0,0,5.767,2.783c2.42,0,3.226-.807,3.226-2.1,0-1.089-.686-1.613-2.218-1.815l-2.379-.282c-4.961-.6-7.38-2.783-7.38-6.735,0-4.194,3.267-7.1,8.469-7.1,4.557,0,6.695,1.25,8.913,3.428l-3.549,3.63a7.289,7.289,0,0,0-5.041-2.258c-2.1,0-2.9.766-2.9,1.815,0,1.17.484,1.775,2.3,2.057l2.46.323c4.759.6,7.179,2.783,7.179,6.574,0,4.194-3.751,7.3-9.357,7.3A11.516,11.516,0,0,1,78.442,25.61Zm21.415-7.5c0-7.017,3.831-11.413,10.244-11.413s10.244,4.356,10.244,11.413S116.514,29.562,110.1,29.562,99.858,25.126,99.858,18.108Zm14.035,2.218V15.89c0-2.742-1.412-4.315-3.831-4.315s-3.831,1.573-3.831,4.315v4.436c0,2.742,1.412,4.315,3.831,4.315S113.893,23.069,113.893,20.326Zm10.768,8.711V7.179h6.171v3.71h.242a5.96,5.96,0,0,1,6.09-4.194c4.436,0,6.816,3.146,6.816,8.671V29.038h-6.171V15.85c0-2.783-.807-4.154-3.025-4.154-2.017,0-3.952,1.049-3.952,3.186V29.038Zm28.957,0V24h3.751V5.041h-3.751V0h13.793V5.041H163.66V24h3.751v5.041ZM170.8,18.108c0-7.017,3.831-11.413,10.244-11.413s10.244,4.356,10.244,11.413-3.831,11.454-10.244,11.454C174.63,29.522,170.8,25.126,170.8,18.108Zm14.075,2.218V15.89c0-2.742-1.412-4.315-3.831-4.315s-3.831,1.573-3.831,4.315v4.436c0,2.742,1.412,4.315,3.831,4.315C183.463,24.682,184.874,23.069,184.874,20.326ZM204.757,5.606V29.038h-6.332V5.606h-7.864V0h22.061V5.606Zm5.082,23.472V25.569h-1.291v-.726h3.428v.726h-1.291v3.509Zm2.7,0V24.843h1.008l1.008,1.936h.04l.968-1.936h1.008v4.235h-.766V27.263l.04-1.291h-.04l-1.25,2.3-1.21-2.3h-.04l.04,1.291v1.815h-.807Z"/>
</svg>
